<?xml version="1.0" encoding="iso-8859-1"?>
<!-- Generator: Adobe Illustrator 16.0.0, SVG Export Plug-In . SVG Version: 6.00 Build 0)  -->
<!DOCTYPE svg PUBLIC "-//W3C//DTD SVG 1.1//EN" "http://www.w3.org/Graphics/SVG/1.1/DTD/svg11.dtd">
<svg version="1.1" id="Capa_1" xmlns="http://www.w3.org/2000/svg" xmlns:xlink="http://www.w3.org/1999/xlink" x="0px" y="0px"
	 width="533.333px" height="533.333px" viewBox="0 0 533.333 533.333" style="enable-background:new 0 0 533.333 533.333;"
	 xml:space="preserve">
<g>
	<path d="M366.667,0C274.62,0,200,74.619,200,166.667c0,10.431,0.968,20.634,2.8,30.534L0,400v100
		c0,18.409,14.924,33.333,33.333,33.333h33.333V500h66.667v-66.667H200v-66.666h66.667l43.252-43.252
		c17.713,6.415,36.82,9.918,56.748,9.918c92.047,0,166.667-74.618,166.667-166.667C533.333,74.619,458.713,0,366.667,0z
		 M416.601,166.732c-27.615,0-50-22.385-50-50s22.385-50,50-50s50,22.385,50,50S444.215,166.732,416.601,166.732z"/>
</g>
<g>
</g>
<g>
</g>
<g>
</g>
<g>
</g>
<g>
</g>
<g>
</g>
<g>
</g>
<g>
</g>
<g>
</g>
<g>
</g>
<g>
</g>
<g>
</g>
<g>
</g>
<g>
</g>
<g>
</g>
</svg>
