<svg height="480pt" viewBox="0 0 480.22241 480" width="480pt" xmlns="http://www.w3.org/2000/svg"><path d="m8.222656 376.109375c0 17.675781 14.328125 32 32 32h400c17.671875 0 32-14.324219 32-32v-16h-464zm0 0" fill="#9bc9ff"/><path d="m216.222656 408.109375h48v64h-48zm0 0" fill="#9bc9ff"/><path d="m104.222656 8.109375c-53.019531 0-96 42.984375-96 96-.015625 3.421875.171875 6.84375.558594 10.242187 5.515625 51.394532 50.734375 89.199219 102.292969 85.515626 51.558593-3.683594 90.945312-47.527344 89.097656-99.183594-1.84375-51.65625-44.257813-92.578125-95.949219-92.574219zm0 0" fill="#9bc9ff"/><path d="m408.222656 8.109375h-128c-17.671875 0-32 14.328125-32 32v80c0 17.675781 14.328125 32 32 32h80v48l48-48c17.671875 0 32-14.324219 32-32v-80c0-17.671875-14.328125-32-32-32zm0 0" fill="#9bc9ff"/><g fill="#1e81ce"><path d="m448.222656 80.910156v-40.800781c-.027344-22.078125-17.917968-39.972656-40-40h-128c-22.082031.027344-39.972656 17.921875-40 40v40h-34.894531c-12.113281-51.148437-60.511719-85.203125-112.75-79.328125s-91.863281 49.828125-92.308594 102.394531c-.3242185 4.730469-.3554685 9.480469-.09375 14.214844l.046875 258.71875c.027344 22.082031 17.917969 39.976563 40 40h168v48h-112c-4.417968 0-8 3.582031-8 8 0 4.421875 3.582032 8 8 8h288c4.417969 0 8-3.578125 8-8 0-4.417969-3.582031-8-8-8h-112v-48h168c22.082032-.023437 39.972656-17.917969 40-40v-256c-.023437-19-13.390625-35.371094-32-39.199219zm-192-40.800781c0-13.253906 10.746094-24 24-24h128c13.253906 0 24 10.746094 24 24v80c0 13.257813-10.746094 24-24 24-2.121094.003906-4.15625.84375-5.65625 2.347656l-34.34375 34.34375v-28.691406c0-4.417969-3.582031-8-8-8h-80c-13.253906 0-24-10.742187-24-24zm24 120h72v40c-.066406 4.324219 3.382813 7.878906 7.703125 7.945313.105469 0 .199219.054687.296875.054687s.328125-.085937.503906-.09375c.691407-.046875 1.375-.179687 2.03125-.402344.257813-.085937.503907-.15625.753907-.269531.890625-.378906 1.707031-.921875 2.398437-1.601562l45.808594-45.808594c20.636719-1.832032 36.46875-19.105469 36.503906-39.824219v-22.628906c9.582032 3.402343 15.988282 12.460937 16 22.628906v232h-448v-192.390625c24.769532 39.121094 72.40625 57.171875 116.878906 44.289062 44.476563-12.878906 75.089844-53.59375 75.121094-99.898437 0-2.652344-.128906-5.324219-.335937-8h32.335937v24c.027344 22.082031 17.917969 39.976563 40 40zm-176-144c47.398438-.003906 86.285156 37.527344 87.957032 84.894531 1.675781 47.367188-34.46875 87.550782-81.746094 90.890625-47.28125 3.335938-88.707032-31.371093-93.707032-78.503906-.351562-3.078125-.523437-6.179687-.503906-9.28125.058594-48.574219 39.421875-87.941406 88-88zm152 448h-32v-48h32zm184-64h-400c-13.253906 0-24-10.742187-24-24v-8h448v8c0 13.257813-10.746094 24-24 24zm0 0"/><path d="m88.222656 128.109375c0-4.417969-3.582031-8-8-8-4.417968 0-8 3.582031-8 8 .054688 14.550781 9.914063 27.230469 24 30.867187v9.132813h16v-9.132813c14.113282-3.59375 23.992188-16.300781 23.992188-30.867187 0-14.5625-9.878906-27.269531-23.992188-30.863281v-30.910156c4.933594 2.835937 7.984375 8.085937 8 13.773437 0 4.421875 3.582032 8 8 8 4.417969 0 8-3.578125 8-8-.054687-14.546875-9.914062-27.226563-24-30.863281v-9.136719h-16v9.136719c-14.113281 3.59375-23.992187 16.300781-23.992187 30.863281 0 14.566406 9.878906 27.273437 23.992187 30.867187v30.910157c-4.933594-2.835938-7.984375-8.085938-8-13.777344zm32 0c-.015625 5.691406-3.066406 10.941406-8 13.777344v-27.550781c4.933594 2.835937 7.984375 8.085937 8 13.773437zm-32-48c.015625-5.6875 3.066406-10.9375 8-13.773437v27.550781c-4.933594-2.835938-7.984375-8.085938-8-13.777344zm0 0"/><path d="m296.222656 88.109375h16c4.417969 0 8-3.578125 8-8 0-4.417969-3.582031-8-8-8h-16c-4.417968 0-8 3.582031-8 8 0 4.421875 3.582032 8 8 8zm0 0"/><path d="m336.222656 88.109375h16c4.417969 0 8-3.578125 8-8 0-4.417969-3.582031-8-8-8h-16c-4.417968 0-8 3.582031-8 8 0 4.421875 3.582032 8 8 8zm0 0"/><path d="m376.222656 88.109375h16c4.417969 0 8-3.578125 8-8 0-4.417969-3.582031-8-8-8h-16c-4.417968 0-8 3.582031-8 8 0 4.421875 3.582032 8 8 8zm0 0"/><path d="m256.222656 280.109375h144c4.417969 0 8-3.578125 8-8 0-4.417969-3.582031-8-8-8h-144c-4.417968 0-8 3.582031-8 8 0 4.421875 3.582032 8 8 8zm0 0"/><path d="m256.222656 312.109375h144c4.417969 0 8-3.578125 8-8 0-4.417969-3.582031-8-8-8h-144c-4.417968 0-8 3.582031-8 8 0 4.421875 3.582032 8 8 8zm0 0"/><path d="m256.222656 248.109375h32c4.417969 0 8-3.578125 8-8 0-4.417969-3.582031-8-8-8h-32c-4.417968 0-8 3.582031-8 8 0 4.421875 3.582032 8 8 8zm0 0"/><path d="m320.222656 248.109375h80c4.417969 0 8-3.578125 8-8 0-4.417969-3.582031-8-8-8h-80c-4.417968 0-8 3.582031-8 8 0 4.421875 3.582032 8 8 8zm0 0"/><path d="m88.222656 320.109375h-40v-40c0-4.417969-3.582031-8-8-8-4.417968 0-8 3.582031-8 8v48c0 4.421875 3.582032 8 8 8h48c4.417969 0 8-3.578125 8-8 0-4.417969-3.582031-8-8-8zm0 0"/></g></svg>